# xmcd CD database file
#
# Track frame offsets:
#	150
#	24583
#	40784
#	60658
#	84742
#	95819
#	125394
#	143632
#	154203
#	182459
#
# Disc length: 2611 seconds
#
# Revision: 14
# Processed by: cddbd v1.5.2PL0 Copyright (c) Steve Scherf et al.
# Submitted via: CDex 1.51
#
DISCID=7f0a310a
DTITLE=Icalma - Bun O Und
DYEAR=2005
DGENRE=Jazz
TTITLE0=Tourbillon Spatial
TTITLE1=Parfois Elles Chantent
TTITLE2=Rose
TTITLE3=Roi De Champs
TTITLE4=Ca C-est Hier Soir
TTITLE5=Tu Ne Sais Rien D-Elle
TTITLE6=Bazar Ailleurs
TTITLE7=Oui S-Embrassent Dans Les Bles
TTITLE8=Plan Du Poeme
TTITLE9=Murmures
EXTD=YEAR: 2005
EXTT0=
EXTT1=
EXTT2=
EXTT3=
EXTT4=
EXTT5=
EXTT6=
EXTT7=
EXTT8=
EXTT9=
PLAYORDER=
